<?xml version="1.0" standalone="no"?>
<!DOCTYPE svg PUBLIC "-//W3C//DTD SVG 20010904//EN"
 "http://www.w3.org/TR/2001/REC-SVG-20010904/DTD/svg10.dtd">
<svg version="1.0" xmlns="http://www.w3.org/2000/svg"
 width="16.000000pt" height="16.000000pt" viewBox="0 0 16.000000 16.000000"
 preserveAspectRatio="xMidYMid meet">

<g transform="translate(0.000000,16.000000) scale(0.100000,-0.100000)"
fill="#000000" stroke="none">
<path d="M43 115 c-1 -28 2 -35 17 -35 18 0 34 -25 25 -40 -3 -5 -1 -11 5 -15
6 -4 7 -11 4 -17 -4 -6 1 -8 12 -6 14 2 20 13 22 39 3 40 -17 69 -49 69 -12 0
-19 7 -19 20 0 35 -15 21 -17 -15z"/>
</g>
</svg>
